<svg width="70" height="70" viewBox="0 0 70 70" fill="none" xmlns="http://www.w3.org/2000/svg">
<g clip-path="url(#clip0)">
<path d="M62.4504 60.083L7.55184 60.0846C5.98791 60.0846 4.71998 58.8168 4.71984 57.2529L4.71875 20.2125C4.71875 18.6485 5.98654 17.3805 7.55061 17.3805L62.4491 17.3789C64.013 17.3789 65.2809 18.6467 65.2811 20.2106L65.2822 57.251C65.2822 58.8151 64.0144 60.083 62.4504 60.083Z" fill="#34B2FF"/>
<path d="M65.2825 57.2363C65.2825 58.8078 64.0219 60.0833 62.4655 60.0833H58.2402C59.7965 60.0833 61.0572 58.8078 61.0572 57.2363L61.0558 20.2259C61.0558 18.6557 59.7995 17.3831 58.246 17.3789H62.4643C64.0206 17.3789 65.2813 18.653 65.2813 20.2259L65.2825 57.2363Z" fill="#34B2FF"/>
<path d="M61.0559 55.2599C61.0559 55.5652 60.811 55.8127 60.509 55.8127H56.8306L9.4916 55.814C9.18959 55.814 8.94473 55.5666 8.94473 55.2613L8.94336 22.2035C8.94336 21.8982 9.18822 21.6508 9.49023 21.6508L56.8292 21.6494H60.5078C60.8098 21.6494 61.0547 21.8969 61.0547 22.2022L61.0559 55.2599Z" fill="#F3F3F3"/>
<path d="M60.5099 55.8127H56.8314L56.8301 21.6494H60.5086C60.8106 21.6494 61.0555 21.8969 61.0555 22.2022L61.0569 55.2599C61.0569 55.5652 60.812 55.8127 60.5099 55.8127Z" fill="#E4E4E4"/>
<path d="M66.3363 66.7196H3.66365C1.64021 66.7196 0 65.0793 0 63.0559V60.2346C0 59.9233 0.252383 59.6709 0.563691 59.6709H69.4364C69.7477 59.6709 70.0001 59.9233 70.0001 60.2346V63.0559C70 65.0793 68.3598 66.7196 66.3363 66.7196Z" fill="#34B2FF"/>
<path d="M69.4372 59.6709H65.2119C65.523 59.6709 65.7753 59.9234 65.7753 60.2347V63.0541C65.7753 65.0784 64.1358 66.7194 62.1133 66.7194H66.3386C68.3611 66.7196 70.0006 65.0785 70.0006 63.0543V60.2349C70.0006 59.9234 69.7483 59.6709 69.4372 59.6709Z" fill="#34B2FF"/>
<path d="M39.7882 63.0543H30.2124C29.2785 63.0543 28.5215 62.2973 28.5215 61.3633V59.6709H41.4791V61.3633C41.4791 62.2973 40.7221 63.0543 39.7882 63.0543Z" fill="#074ECE"/>
<path d="M51.5653 50.1725C51.5302 50.4309 51.4464 50.8009 51.3716 51.1017C51.3017 51.3826 51.0584 51.579 50.7792 51.579H49.9243C49.6451 51.579 49.4018 51.3826 49.3319 51.1017C49.2571 50.8009 49.1733 50.4309 49.1382 50.1725C49.1121 49.98 49.0008 49.8114 48.8387 49.7144L48.0487 49.2416C47.8868 49.1447 47.6908 49.1289 47.5175 49.2016C47.2837 49.2995 46.9311 49.4098 46.6418 49.4932C46.3731 49.5706 46.088 49.4502 45.9484 49.1995L45.5215 48.433C45.3817 48.182 45.4238 47.8648 45.6233 47.6619C45.8373 47.4441 46.105 47.1835 46.3035 47.0228C46.4511 46.9034 46.536 46.7191 46.536 46.5249V45.5805C46.536 45.3862 46.4511 45.202 46.3035 45.0825C46.105 44.9218 45.8374 44.6612 45.6233 44.4435C45.4238 44.2406 45.3817 43.9234 45.5215 43.6723L45.9484 42.9059C46.088 42.6551 46.373 42.5347 46.6418 42.6122C46.9311 42.6956 47.2837 42.8058 47.5175 42.9038C47.6908 42.9765 47.8868 42.9607 48.0487 42.8638L48.8387 42.391C49.0008 42.294 49.1121 42.1254 49.1382 41.9329C49.1733 41.6745 49.2571 41.3044 49.3319 41.0037C49.4018 40.7228 49.6451 40.5264 49.9243 40.5264H50.7792C51.0584 40.5264 51.3017 40.7228 51.3716 41.0037C51.4464 41.3044 51.5302 41.6745 51.5653 41.9329C51.5914 42.1254 51.7027 42.294 51.8648 42.391L52.6548 42.8638C52.8167 42.9607 53.0126 42.9764 53.186 42.9038C53.4198 42.8058 53.7723 42.6956 54.0617 42.6122C54.3304 42.5347 54.6154 42.6551 54.7551 42.9059L55.182 43.6723C55.3218 43.9234 55.2796 44.2406 55.0802 44.4435C54.8661 44.6612 54.5984 44.9218 54.3999 45.0825C54.2524 45.202 54.1674 45.3862 54.1674 45.5805V46.5249C54.1674 46.7191 54.2524 46.9034 54.3999 47.0228C54.5984 47.1835 54.8661 47.4442 55.0802 47.6619C55.2796 47.8648 55.3218 48.1819 55.182 48.433L54.7551 49.1995C54.6154 49.4502 54.3304 49.5706 54.0617 49.4932C53.7723 49.4098 53.4198 49.2996 53.186 49.2016C53.0126 49.1289 52.8167 49.1447 52.6548 49.2416L51.8648 49.7144C51.7026 49.8114 51.5914 49.9799 51.5653 50.1725ZM52.4567 46.0527C52.4567 44.8476 51.5143 43.8707 50.3517 43.8707C49.1891 43.8707 48.2467 44.8476 48.2467 46.0527C48.2467 47.2578 49.1891 48.2347 50.3517 48.2347C51.5143 48.2347 52.4567 47.2578 52.4567 46.0527Z" fill="#34B2FF"/>
<path d="M33.4401 42.3865C33.3616 42.9431 33.1743 43.7403 33.007 44.3881C32.8507 44.9932 32.3065 45.4163 31.6821 45.4163H29.7701C29.1457 45.4163 28.6016 44.9932 28.4453 44.3881C28.278 43.7403 28.0907 42.9431 28.0122 42.3865C27.9538 41.9718 27.7049 41.6087 27.3423 41.3997L25.5756 40.3812C25.2134 40.1725 24.7752 40.1386 24.3877 40.295C23.8647 40.5061 23.0762 40.7435 22.4292 40.9232C21.8283 41.09 21.1908 40.8306 20.8784 40.2905L19.9236 38.6394C19.611 38.0987 19.7053 37.4154 20.1514 36.9783C20.6301 36.5092 21.2288 35.9479 21.6727 35.6017C22.0026 35.3444 22.1926 34.9475 22.1926 34.529V32.4947C22.1926 32.0763 22.0026 31.6794 21.6727 31.4221C21.2288 31.0759 20.6302 30.5144 20.1514 30.0454C19.7053 29.6083 19.611 28.9252 19.9236 28.3843L20.8784 26.7333C21.1908 26.1931 21.8281 25.9338 22.4292 26.1005C23.0762 26.2802 23.8647 26.5175 24.3877 26.7288C24.7752 26.8853 25.2134 26.8513 25.5756 26.6425L27.3423 25.6241C27.7049 25.415 27.9538 25.0519 28.0122 24.6372C28.0907 24.0807 28.278 23.2835 28.4453 22.6357C28.6016 22.0306 29.1457 21.6074 29.7701 21.6074H31.6821C32.3065 21.6074 32.8507 22.0306 33.007 22.6357C33.1743 23.2835 33.3616 24.0807 33.4401 24.6372C33.4985 25.0519 33.7474 25.415 34.11 25.6241L35.8767 26.6425C36.2388 26.8513 36.677 26.8852 37.0646 26.7288C37.5876 26.5177 38.376 26.2802 39.0231 26.1005C39.624 25.9338 40.2615 26.1931 40.5739 26.7333L41.5286 28.3843C41.8413 28.925 41.747 29.6083 41.3009 30.0454C40.8222 30.5145 40.2235 31.0759 39.7796 31.4221C39.4497 31.6794 39.2596 32.0763 39.2596 32.4947V34.529C39.2596 34.9475 39.4497 35.3444 39.7796 35.6017C40.2235 35.9479 40.8221 36.5094 41.3009 36.9783C41.747 37.4154 41.8413 38.0986 41.5286 38.6394L40.5739 40.2905C40.2615 40.8306 39.6241 41.09 39.0231 40.9232C38.376 40.7435 37.5876 40.5061 37.0646 40.295C36.677 40.1384 36.2388 40.1725 35.8767 40.3812L34.11 41.3997C33.7473 41.6087 33.4985 41.9718 33.4401 42.3865ZM35.4337 33.5119C35.4337 30.9161 33.3261 28.8117 30.7261 28.8117C28.1261 28.8117 26.0184 30.9161 26.0184 33.5119C26.0184 36.1078 28.1261 38.2122 30.7261 38.2122C33.3261 38.2122 35.4337 36.1078 35.4337 33.5119Z" fill="#34B2FF"/>
</g>
<defs>
<clipPath id="clip0">
<rect width="70" height="70" fill="white"/>
</clipPath>
</defs>
</svg>
